<?xml version="1.0" encoding="utf-8"?>
<svg viewBox="24 60.89997863769531 132.9000244140625 89.40000915527344" width="132.9000244140625" height="89.40000915527344" xmlns="http://www.w3.org/2000/svg"><path class="st1" d="M140.4,91.4c-0.6-1.7-1.4-4.1-2.2-6.4c0.3-0.2,0.6-0.4,1-0.6c0.1,0.1,0.1,0.1,0.2,0.2&#10;&#9;&#9;&#9;c0.1,0.1,0.1,0.1,0.2,0.2c0.2,0.2,0.5,0.3,0.8,0.5l0.1,0l0.1,0l0,0c1.1,0.6,2.6,0.9,4.4,0.9c3.5,0,6.3-1.4,6.3-3.3&#10;&#9;&#9;&#9;c0-1.8-2.8-3.3-6.3-3.3c-2,0-3.7,0.5-4.8,1.2l0,0l-0.2,0.1c0,0-0.1,0.1-0.1,0.1c-0.1,0-0.1,0.1-0.1,0.1c-0.2,0.1-0.3,0.3-0.4,0.4&#10;&#9;&#9;&#9;c0,0-0.1,0.1-0.1,0.1c-0.1,0.1-0.2,0.3-0.3,0.4c0,0.1-0.1,0.1-0.1,0.2c-0.1,0.2-0.1,0.4-0.1,0.6c0,0,0,0.1,0,0.1&#10;&#9;&#9;&#9;c-0.3,0.1-0.6,0.3-0.9,0.5c-1.6-4.6-3.1-9-3.1-9c-1.6-5.6-8.3-13.5-18.3-13.5H64.5c-10,0-16.9,8-18.3,13.5c0,0-1.5,4.3-3.1,8.9&#10;&#9;&#9;&#9;c-0.2-0.1-0.5-0.3-0.7-0.4c0,0,0-0.1,0-0.1c0-0.2,0-0.4-0.1-0.6c0-0.1,0-0.1-0.1-0.1c-0.1-0.2-0.2-0.3-0.3-0.4&#10;&#9;&#9;&#9;c0,0-0.1-0.1-0.1-0.1c-0.1-0.1-0.3-0.3-0.4-0.4c0,0-0.1-0.1-0.1-0.1c-0.1,0-0.1-0.1-0.1-0.1L41,80.9l0,0c-1.1-0.7-2.9-1.2-4.8-1.2&#10;&#9;&#9;&#9;c-3.5,0-6.3,1.4-6.3,3.3c0,1.8,2.8,3.3,6.3,3.3c1.7,0,3.2-0.3,4.4-0.9l0,0l0.1,0l0.1,0c0.3-0.1,0.5-0.3,0.8-0.5&#10;&#9;&#9;&#9;c0.1-0.1,0.1-0.1,0.2-0.2c0.1-0.1,0.2-0.1,0.2-0.2c0.3,0.1,0.6,0.3,0.8,0.4c-0.8,2.4-1.7,4.8-2.3,6.6C33.9,92.5,24,94.9,24,99.3&#10;&#9;&#9;&#9;v16.8c0,0.3,0.1,2.7,0.5,5.8v16.8c0,1.3,1.4,2.4,3.1,2.4h3.9c1,1.4,2.2,2.4,3.6,2.8c0.4,0.1,30.9,6.3,54.8,6.4v0h0.5h0.1h0.1H91v0&#10;&#9;&#9;&#9;c23.9-0.1,54.5-6.3,54.8-6.3c1.4-0.4,2.6-1.4,3.6-2.8h3.9c1.7,0,3.1-1.1,3.1-2.4v-16.6c0.5-3.2,0.5-5.7,0.5-6c0,0,0-16.8,0-16.8&#10;&#9;&#9;&#9;C156.9,94.9,146.9,92.5,140.4,91.4z M144.9,80.7c3.1,0,5.3,1.2,5.3,2.3c0,1.1-2.2,2.3-5.3,2.3c-1,0-1.8-0.1-2.6-0.3&#10;&#9;&#9;&#9;c1.3-0.4,2-1,2-1.8c0-0.8-1-1.5-2.6-2C142.6,80.9,143.7,80.7,144.9,80.7z M38.7,85c-0.8,0.2-1.6,0.3-2.6,0.3&#10;&#9;&#9;&#9;c-3.1,0-5.3-1.2-5.3-2.3c0-1.1,2.2-2.3,5.3-2.3c1.2,0,2.3,0.2,3.2,0.5c-1.7,0.4-2.6,1.1-2.6,2C36.6,83.9,37.4,84.6,38.7,85z&#10;&#9;&#9;&#9; M45.5,87.6l3-7.7c1.7-5.1,7.7-11.1,17.1-11.1h49.6c9.4,0,15.7,6.4,17.1,11.1l3.3,8.4c0.2,0.8,0.5,1.6,0.9,2.5&#10;&#9;&#9;&#9;c-0.6-0.1-1-0.1-1.2-0.1l0,0h0h-0.1c-10.1-6-40.7-7.2-44.7-6.8c-4.1-0.4-34.7,0.8-44.7,6.8h-0.1h0l0,0c-0.2,0-0.6,0.1-1.2,0.1&#10;&#9;&#9;&#9;C45.1,89.7,45.4,88.6,45.5,87.6z M35.3,143c-1-0.3-1.9-1-2.6-1.9c-1-1.2-1.8-2.8-2.5-4.7c0.8,0.7,1.6,1.2,2.6,1.5l0,0l0,0&#10;&#9;&#9;&#9;c0.1,0,1.7,0.3,4.4,0.7c7.7,1.2,24.4,3.5,40.6,4.4l1.5,5.9C58,147.6,35.6,143,35.3,143z M148.2,141.1c-0.8,0.9-1.6,1.6-2.6,1.9&#10;&#9;&#9;&#9;c-0.2,0-22.8,4.6-44.3,6l1.5-6c16.4-0.9,33.1-3.2,40.9-4.4c2.7-0.4,4.3-0.7,4.4-0.7l0,0l0,0c1-0.3,1.8-0.8,2.6-1.5&#10;&#9;&#9;&#9;C150,138.3,149.2,139.9,148.2,141.1z M155.9,116.1c0,0.1-0.3,8.7-2.8,14.9c-0.3,0.7-0.6,1.3-0.9,1.9c-0.3,0.5-0.5,0.9-0.8,1.3&#10;&#9;&#9;&#9;c-1,1.3-2.1,2.3-3.5,2.7c-0.2,0-1.7,0.3-4.2,0.7c-3.4,0.5-8.6,1.3-14.8,2l2.8-7.1h-27.8h-7.7c0,0,0,0,0,0l-1.1,9.8l0,0l-0.1,0.5&#10;&#9;&#9;&#9;l0,0l-0.1,0.5l0,0.1c-1.4,0-2.9,0-4.3,0.1c0,0,0,0-0.1,0c0,0,0,0-0.1,0c-1.4,0-2.8,0-4.2,0l0-0.1l-0.1-0.5l0,0l-0.1-0.5l0,0&#10;&#9;&#9;&#9;l-1.1-9.7c-0.1,0-0.1,0-0.2,0h-7.7H49.3l2.8,7.1c-6.2-0.8-11.4-1.5-14.8-2c-2.5-0.4-4-0.6-4.2-0.7c-1.4-0.4-2.6-1.4-3.5-2.7&#10;&#9;&#9;&#9;c-0.3-0.4-0.6-0.9-0.8-1.3c-0.3-0.6-0.6-1.3-0.9-1.9c-2.5-6.2-2.8-14.8-2.8-14.9v-0.4c0.4,0.3,0.9,0.7,1.6,1.1&#10;&#9;&#9;&#9;c0.2,0.1,0.3,0.2,0.5,0.3c0.1,0.1,0.3,0.2,0.5,0.3c1.4,0.8,3.3,1.7,5.8,2.6c-1.3,1.1-2.2,2.7-2.2,4.6c0,3.3,2.7,6,6,6&#10;&#9;&#9;&#9;c0,0,0.1,0,0.1,0c3.3,0,5.9-2.7,5.9-6c0-0.9-0.2-1.7-0.5-2.4c3,0.5,6.5,0.8,10.4,0.9c-1.9,1.1-3.3,3.2-3.7,5.7h26.3h8.6l0,0&#10;&#9;&#9;&#9;c0,0,0,0,0,0h0.2l-0.7-6.1l-0.1-0.6l0-0.1h13.6l0,0.1l-0.1,0.6l-0.7,6.1h0c0,0,0,0,0,0l0,0h8.6h26.3c-0.4-2.5-1.8-4.6-3.7-5.8&#10;&#9;&#9;&#9;c4-0.1,7.5-0.5,10.5-0.9c-0.3,0.7-0.5,1.6-0.5,2.4c0,3.3,2.6,5.9,5.9,6c0,0,0.1,0,0.1,0c3.3,0,6-2.7,6-6c0-1.9-0.9-3.5-2.2-4.6&#10;&#9;&#9;&#9;c2.5-0.8,4.4-1.7,5.8-2.5c0.2-0.1,0.3-0.2,0.5-0.3c0.2-0.1,0.3-0.2,0.5-0.3c0.7-0.4,1.2-0.8,1.6-1.1V116.1z M35.1,120.5&#10;&#9;&#9;&#9;c0.6-0.3,1.3-0.5,2-0.5c0,0,0,0,0,0c0,0,0.1,0,0.1,0c0.7,0,1.4,0.2,2,0.5c0.6,0.3,1.2,0.8,1.6,1.4c0.6,0.8,0.9,1.7,0.9,2.7&#10;&#9;&#9;&#9;c0,2.5-2,4.5-4.5,4.6c0,0-0.1,0-0.1,0c-2.5,0-4.6-2.1-4.6-4.6C32.6,122.7,33.6,121.2,35.1,120.5z M139.2,124.5&#10;&#9;&#9;&#9;c0-1,0.3-1.9,0.9-2.7c0.4-0.6,1-1,1.6-1.4c0.6-0.3,1.2-0.5,1.9-0.5c0,0,0.1,0,0.1,0c0,0,0,0,0.1,0c0.7,0,1.4,0.2,2,0.5&#10;&#9;&#9;&#9;c1.5,0.8,2.5,2.3,2.5,4.1c0,2.5-2.1,4.6-4.6,4.6c0,0-0.1,0-0.1,0C141.2,129,139.2,127,139.2,124.5z M155.9,113.7v0.7&#10;&#9;&#9;&#9;c0,0-0.5,0.5-1.6,1.3c-0.1,0.1-0.3,0.2-0.5,0.3c-0.2,0.1-0.3,0.2-0.5,0.3c-1.5,0.9-3.8,2-6.9,3c-0.8-0.4-1.7-0.7-2.7-0.7&#10;&#9;&#9;&#9;c0,0-0.1,0-0.1,0c-1.9,0-3.6,1-4.7,2.4c-3.8,0.7-8.4,1.1-14,1.1v0c-0.1,0-0.3,0-0.4,0h-19.7c0.3-2.7,1-5.7,1.8-8.8H90.9H90H74.2&#10;&#9;&#9;&#9;c0.8,3.1,1.4,6.1,1.8,8.8H56.3c-0.1,0-0.2,0-0.3,0c-5.5,0-10.1-0.5-14-1.1c-1.1-1.5-2.8-2.4-4.7-2.4c0,0-0.1,0-0.1,0&#10;&#9;&#9;&#9;c-1,0-1.9,0.2-2.7,0.6c-3.1-1-5.4-2.1-6.9-3c-0.2-0.1-0.3-0.2-0.5-0.3c-0.2-0.1-0.3-0.2-0.5-0.3c-1.1-0.7-1.6-1.2-1.6-1.2v-0.7&#10;&#9;&#9;&#9;V99.3c0-3.3,8.4-5.6,15-6.8c0.2,0,0.4-0.1,0.6-0.1c0.2,0,0.4-0.1,0.6-0.1c1-0.2,1.8-0.3,2.7-0.4c0.6-0.1,1.2-0.2,1.7-0.2&#10;&#9;&#9;&#9;c0.3,0.4,0.9,1.3,1.9,2.8c0.1,0.2,0.2,0.3,0.3,0.5c0.1,0.2,0.2,0.3,0.3,0.5c1.2,1.8,2.5,4.1,3.9,6.7c0.1,0.2,0.2,0.4,0.3,0.6&#10;&#9;&#9;&#9;c0.1,0.2,0.2,0.4,0.3,0.5c0,0.1,0.1,0.1,0.1,0.2c1.6,3.2,3.1,6.6,4,10l0.5-0.1c0,0,0,0,0,0h17.2c0,0,0,0,0,0&#10;&#9;&#9;&#9;c-0.1-0.3-0.2-0.7-0.3-1c-0.1-0.4-0.2-0.8-0.3-1.2c-0.1-0.4-0.2-0.8-0.3-1.2c-0.1-0.4-0.2-0.8-0.3-1.2c-0.1-0.4-0.2-0.8-0.4-1.2&#10;&#9;&#9;&#9;c-0.1-0.4-0.3-0.8-0.4-1.3c-0.2-0.7-0.4-1.3-0.6-2c0-0.1,0-0.1-0.1-0.2c0-0.1-0.1-0.2-0.1-0.3c-0.1-0.2-0.1-0.3-0.2-0.5&#10;&#9;&#9;&#9;c0,0,0,0,0,0c-0.1-0.2-0.1-0.3-0.2-0.5c-0.1-0.3-0.2-0.5-0.3-0.8c-0.1-0.3-0.2-0.6-0.3-1c-0.1-0.4-0.3-0.8-0.4-1.2&#10;&#9;&#9;&#9;c-0.1-0.3-0.2-0.6-0.3-0.9c-0.3-0.8-0.5-1.5-0.8-2.2c-0.1-0.3-0.2-0.6-0.3-0.8c0-0.1-0.1-0.2-0.1-0.3c-0.1-0.2-0.1-0.3-0.2-0.5&#10;&#9;&#9;&#9;c0-0.1-0.1-0.2-0.1-0.3c0-0.1,0-0.1-0.1-0.2c-0.1-0.2-0.2-0.5-0.3-0.7c-0.1-0.3-0.3-0.7-0.4-1c-0.1-0.3-0.3-0.7-0.4-1&#10;&#9;&#9;&#9;c0,0,0,0,0-0.1c-0.1-0.2-0.1-0.3-0.2-0.5c-0.1-0.2-0.1-0.3-0.2-0.5c0-0.1-0.1-0.2-0.1-0.3c-0.1-0.3-0.2-0.6-0.3-0.9&#10;&#9;&#9;&#9;c-0.1-0.3-0.2-0.5-0.3-0.7c-0.1-0.3-0.2-0.6-0.3-0.8c-0.1-0.2-0.2-0.4-0.2-0.6c-0.1-0.3-0.2-0.5-0.3-0.8&#10;&#9;&#9;&#9;c11.3-1.6,23.2-1.9,25.4-1.7l0,0l0,0c2.2-0.2,14.1,0.1,25.4,1.7c-0.1,0.3-0.2,0.5-0.3,0.8c-0.1,0.1-0.1,0.3-0.2,0.4&#10;&#9;&#9;&#9;c-0.1,0.3-0.3,0.7-0.4,1c-0.1,0.2-0.2,0.4-0.2,0.6c-0.1,0.4-0.3,0.8-0.5,1.2c0,0,0,0,0,0.1c-0.1,0.2-0.1,0.3-0.2,0.5&#10;&#9;&#9;&#9;c0,0.1,0,0.1-0.1,0.2c0,0.1-0.1,0.2-0.1,0.3c-0.1,0.4-0.3,0.7-0.4,1.1c-0.1,0.3-0.2,0.6-0.3,0.9c-0.1,0.3-0.2,0.5-0.3,0.8&#10;&#9;&#9;&#9;c0,0.1-0.1,0.2-0.1,0.2c0,0.1-0.1,0.2-0.1,0.3c-0.1,0.2-0.1,0.3-0.2,0.5c0,0.1-0.1,0.2-0.1,0.3c-0.1,0.3-0.2,0.6-0.3,0.9&#10;&#9;&#9;&#9;c-0.2,0.7-0.5,1.4-0.7,2.1c-0.1,0.3-0.2,0.6-0.3,0.9c-0.1,0.4-0.3,0.8-0.4,1.3c-0.1,0.3-0.2,0.6-0.3,0.9c-0.1,0.3-0.2,0.5-0.3,0.8&#10;&#9;&#9;&#9;c-0.1,0.2-0.1,0.3-0.2,0.5c0,0,0,0,0,0c-0.1,0.2-0.1,0.3-0.2,0.5c0,0.1-0.1,0.2-0.1,0.3c0,0,0,0.1,0,0.1c-0.3,0.8-0.5,1.6-0.8,2.4&#10;&#9;&#9;&#9;c-0.1,0.3-0.2,0.6-0.3,0.9c-0.1,0.4-0.3,0.9-0.4,1.3c-0.1,0.3-0.2,0.7-0.3,1c-0.1,0.4-0.2,0.8-0.4,1.3c-0.1,0.4-0.2,0.8-0.3,1.1&#10;&#9;&#9;&#9;c-0.1,0.4-0.2,0.8-0.3,1.1v0h17.2c0,0,0,0,0,0l0.5,0.1c0.9-3.3,2.4-6.8,4-10c0-0.1,0.1-0.1,0.1-0.2c0.1-0.2,0.2-0.4,0.3-0.5&#10;&#9;&#9;&#9;c0.1-0.2,0.2-0.4,0.3-0.6c1.4-2.6,2.8-4.9,3.9-6.7c0.1-0.2,0.2-0.3,0.3-0.5c0.1-0.2,0.2-0.3,0.3-0.5c0.9-1.4,1.6-2.4,1.9-2.8&#10;&#9;&#9;&#9;c0.5,0.1,1,0.1,1.6,0.2c0.8,0.1,1.7,0.2,2.7,0.4c0.2,0,0.4,0.1,0.6,0.1c0.2,0,0.4,0.1,0.6,0.1c6.6,1.2,15.1,3.5,15.1,6.8V113.7z&#10;&#9;&#9;&#9; M53.5,110.5l0.1,0c-12.2-6.9-17.8-6.7-18-6.7c-2.4,0-4.4,0.7-5.6,2.2c-1.7,2-1.7,4.9-1.6,6.4c0,0.5,0.1,0.8,0.1,0.9&#10;&#9;&#9;&#9;c0,0.7,0.3,1.7,8.7,2.7c1,0.1,2,0.3,3.3,0.4c5.6,0.6,11.3,1,11.3,1c1.5,0.1,2.6-0.2,3.3-0.9c0.6-0.7,0.6-1.4,0.6-1.7&#10;&#9;&#9;&#9;C56.1,112.2,54.5,110.9,53.5,110.5z M33.3,105.6v6.9v1.7v0.2c-3-0.6-3.5-1-3.6-1.1v0c0-0.1-0.1-0.3-0.1-0.8&#10;&#9;&#9;&#9;c-0.2-1.8-0.1-5.9,3.7-7.1V105.6z M41.7,114.7c-1.9,0-3.5-1.6-3.5-3.5c0-1.9,1.6-3.5,3.5-3.5c1.9,0,3.5,1.6,3.5,3.5&#10;&#9;&#9;&#9;C45.3,113.1,43.7,114.7,41.7,114.7z M50.8,116.1c-0.4,0.2-0.9,0.4-1.4,0.4c-0.6,0-1.2-0.2-1.7-0.6c-0.7-0.5-1.1-1.3-1.1-2.2&#10;&#9;&#9;&#9;c0-1.6,1.3-2.8,2.8-2.8c1.6,0,2.8,1.3,2.8,2.8C52.3,114.7,51.7,115.6,50.8,116.1z M145.2,103.9c-0.2,0-5.7-0.2-17.9,6.7l0.1,0&#10;&#9;&#9;&#9;c-0.9,0.3-2.6,1.7-2.2,4.4c0,0.2,0,1,0.6,1.7c0.7,0.7,1.8,1,3.3,0.9c0.1,0,5.7-0.4,11.3-1c1.2-0.1,2.3-0.3,3.2-0.4&#10;&#9;&#9;&#9;c8.4-1.1,8.7-2,8.8-2.7c0-0.1,0.1-0.4,0.1-1c0.1-1.5,0.1-4.4-1.6-6.4C149.6,104.6,147.7,103.8,145.2,103.9z M133.1,115.8&#10;&#9;&#9;&#9;c-0.5,0.4-1.1,0.6-1.7,0.6c-0.5,0-0.9-0.1-1.4-0.4c-0.9-0.5-1.5-1.4-1.5-2.5c0-1.6,1.3-2.8,2.8-2.8c1.6,0,2.8,1.3,2.8,2.8&#10;&#9;&#9;&#9;C134.2,114.5,133.8,115.3,133.1,115.8z M139.2,114.7c-1.9,0-3.5-1.6-3.5-3.5c0-1.9,1.6-3.5,3.5-3.5c1.9,0,3.5,1.6,3.5,3.5&#10;&#9;&#9;&#9;C142.7,113.1,141.1,114.7,139.2,114.7z M151.3,112.5c0,0.4-0.1,0.7-0.1,0.8l0,0c-0.1,0.1-0.6,0.5-3.6,1.1v-0.2v-1.7v-6.9v-0.2&#10;&#9;&#9;&#9;C151.4,106.6,151.5,110.8,151.3,112.5z" style="fill: rgb(204, 204, 204); opacity: 1;" transform="matrix(1, 0, 0, 1, 0, 0)"/></svg>